<?xml version="1.0" encoding="utf-8"?>
<!-- Generator: Adobe Illustrator 23.0.1, SVG Export Plug-In . SVG Version: 6.00 Build 0)  -->
<svg version="1.1" id="Layer_1" xmlns="http://www.w3.org/2000/svg" xmlns:xlink="http://www.w3.org/1999/xlink" x="0px" y="0px"
	 viewBox="0 0 1240 370" style="enable-background:new 0 0 1240 370;" xml:space="preserve">
<style type="text/css">
	.st0{fill:#5ACC93;}
	.st1{fill:#4BF7A9;}
	.st2{fill:#F96753;}
	.st3{font-family:'OpenSans-Semibold';}
	.st4{font-size:113.7555px;}
	.st5{letter-spacing:3.41;}
	.st6{font-size:51.2723px;}
	.st7{letter-spacing:1.92;}
	.st8{fill:#323232;}
	.st9{fill-rule:evenodd;clip-rule:evenodd;fill:#FFFFFF;}
	.st10{fill:#FF4F19;}
	.st11{fill-rule:evenodd;clip-rule:evenodd;fill:#FFDCC0;}
	.st12{fill:#FAC947;}
	.st13{fill:#FFFFFF;}
	.st14{fill:#FF9323;}
</style>
<rect class="st0" width="1239.11" height="370"/>
<g>
	<polygon class="st1" points="996.83,0 1240,0 1240,370 	"/>
	<polygon class="st1" points="244.07,370 0.89,370 0.89,0 	"/>
</g>
<g>
	<text transform="matrix(0.8786 0 0 1 423.3022 222.7012)" class="st2 st3 st4 st5">CENTER</text>
</g>
<g>
	<text transform="matrix(1.0398 0 0 1 438.0757 281.1963)" class="st2 st3 st6 st7">Blog</text>
</g>
<text id="CODE" transform="matrix(1.0398 0 0 1 648.8154 124.397)" class="st2 st3 st6 st7">CODE</text>
<g>
	<g>
		<path class="st8" d="M43.19,109.6l229.48-0.76c2.95-0.01,5.36,2.43,5.36,5.41l0.49,150.99c0.01,2.99-2.39,5.43-5.34,5.44
			l-229.48,0.77c-2.94,0.01-5.36-2.43-5.37-5.41l-0.48-150.98C37.84,112.06,40.25,109.61,43.19,109.6z"/>
		<path class="st9" d="M253.42,131.07l7.41,0.02c0.84,0,1.53,0.71,1.53,1.56l-0.02,5.59c-0.01,0.86-0.69,1.55-1.54,1.55l-7.41-0.02
			c-0.84,0-1.53-0.7-1.53-1.55l0.02-5.6C251.88,131.76,252.58,131.06,253.42,131.07z"/>
		<path class="st9" d="M253.73,141.72l6.73,0.02c1.02,0,1.87,0.86,1.86,1.9l-0.02,7.57c0,1.04-0.85,1.89-1.87,1.89l-6.74-0.02
			c-1.02,0-1.86-0.86-1.86-1.9l0.02-7.57C251.86,142.57,252.7,141.72,253.73,141.72z"/>
		<path class="st9" d="M253.7,155.06l6.73,0.01c1.04,0,1.87,0.86,1.87,1.9l-0.02,7.56c0,1.05-0.85,1.9-1.87,1.89l-6.73-0.02
			c-1.03,0-1.87-0.86-1.86-1.9l0.02-7.57C251.82,155.9,252.66,155.05,253.7,155.06z"/>
		<path class="st9" d="M253.66,168.38l6.73,0.02c1.03,0,1.87,0.86,1.87,1.9l-0.02,7.57c-0.01,1.05-0.85,1.89-1.88,1.89l-6.73-0.02
			c-1.02-0.01-1.87-0.86-1.87-1.9l0.02-7.56C251.78,169.22,252.62,168.38,253.66,168.38z"/>
		<path class="st9" d="M253.62,181.7l6.73,0.02c1.03,0,1.87,0.86,1.86,1.9l-0.02,7.56c0,1.05-0.85,1.9-1.87,1.9l-6.73-0.02
			c-1.03-0.01-1.87-0.86-1.87-1.9l0.02-7.57C251.75,182.56,252.59,181.71,253.62,181.7z"/>
		<path class="st9" d="M253.58,195.04l6.73,0.02c1.03,0,1.87,0.86,1.87,1.9l-0.02,7.57c-0.01,1.04-0.85,1.89-1.88,1.89l-6.73-0.02
			c-1.03,0-1.87-0.86-1.87-1.9l0.02-7.57C251.71,195.88,252.56,195.04,253.58,195.04z"/>
		<path class="st9" d="M240.33,131.03l7.41,0.02c0.84,0,1.53,0.7,1.52,1.55l-0.01,5.59c-0.01,0.86-0.7,1.55-1.54,1.55l-7.41-0.02
			c-0.84,0-1.53-0.7-1.52-1.55l0.02-5.59C238.79,131.73,239.48,131.03,240.33,131.03z"/>
		<path class="st9" d="M228.67,141.66l18.57,0.05c1.11,0.01,1.99,0.92,1.99,2.04l-0.02,7.3c0,1.12-0.9,2.03-2,2.03l-18.57-0.05
			c-1.1-0.01-2-0.92-2-2.04l0.02-7.3C226.67,142.56,227.57,141.66,228.67,141.66z"/>
		<path class="st9" d="M237.16,155l10.04,0.04c1.1-0.01,1.99,0.91,2,2.03l-0.02,7.3c-0.01,1.11-0.91,2.03-2.01,2.02l-10.04-0.02
			c-1.1-0.01-2-0.92-1.99-2.03l0.02-7.31C235.16,155.91,236.07,155.01,237.16,155z"/>
		<path class="st9" d="M227.13,168.31l20.04,0.06c1.1,0,2,0.92,2,2.04l-0.02,7.3c0,1.11-0.91,2.03-2.01,2.02l-20.04-0.05
			c-1.1-0.01-1.99-0.93-1.99-2.04l0.01-7.3C225.12,169.21,226.02,168.3,227.13,168.31z"/>
		<path class="st9" d="M240.53,181.67l6.74,0.02c1.02,0,1.86,0.87,1.86,1.91l-0.02,7.57c0,1.04-0.85,1.88-1.88,1.89l-6.73-0.02
			c-1.03,0-1.87-0.86-1.86-1.9l0.02-7.57C238.65,182.52,239.5,181.67,240.53,181.67z"/>
		<path class="st9" d="M240.49,195l6.72,0.02c1.04,0,1.88,0.86,1.87,1.9l-0.02,7.57c-0.01,1.04-0.85,1.89-1.88,1.89l-6.73-0.02
			c-1.03,0-1.87-0.86-1.87-1.9l0.02-7.57C238.62,195.85,239.46,195,240.49,195z"/>
		<path class="st9" d="M228.23,130.99l6.41,0.02c0.84,0,1.53,0.7,1.53,1.56l-0.02,5.59c-0.01,0.86-0.69,1.55-1.54,1.55l-6.41-0.02
			c-0.84,0-1.54-0.71-1.53-1.56l0.01-5.59C226.7,131.69,227.39,130.99,228.23,130.99z"/>
		<path class="st9" d="M215.94,130.96l6.41,0.01c0.85,0.01,1.53,0.71,1.53,1.56l-0.02,5.58c0,0.86-0.69,1.56-1.53,1.55l-6.41-0.02
			c-0.84,0-1.53-0.7-1.52-1.56l0.01-5.59C214.41,131.65,215.1,130.96,215.94,130.96z"/>
		<path class="st9" d="M203.66,130.92l6.41,0.02c0.84,0.01,1.52,0.7,1.52,1.56l-0.02,5.59c0,0.85-0.69,1.55-1.54,1.55l-6.41-0.02
			c-0.85,0-1.53-0.7-1.53-1.56l0.01-5.58C202.12,131.62,202.81,130.92,203.66,130.92z"/>
		<path class="st9" d="M191.36,130.89l6.42,0.02c0.84,0.01,1.53,0.71,1.53,1.56l-0.02,5.58c0,0.86-0.69,1.56-1.53,1.55l-6.41-0.02
			c-0.85,0-1.53-0.71-1.53-1.56l0.01-5.58C189.83,131.58,190.52,130.89,191.36,130.89z"/>
		<path class="st9" d="M179.08,130.85l6.41,0.02c0.84,0.01,1.53,0.71,1.53,1.56l-0.02,5.59c-0.01,0.86-0.7,1.56-1.54,1.55
			l-6.41-0.02c-0.84-0.01-1.53-0.71-1.53-1.56l0.02-5.59C177.54,131.55,178.23,130.85,179.08,130.85z"/>
		<path class="st9" d="M166.79,130.82l6.41,0.01c0.84,0,1.53,0.71,1.53,1.55l-0.01,5.59c0,0.85-0.7,1.55-1.54,1.55l-6.41-0.02
			c-0.84,0-1.53-0.71-1.53-1.56l0.01-5.59C165.25,131.51,165.94,130.82,166.79,130.82z"/>
		<path class="st9" d="M154.49,130.79l6.42,0.01c0.84,0.01,1.53,0.7,1.53,1.56l-0.02,5.59c0,0.85-0.69,1.55-1.54,1.55l-6.41-0.02
			c-0.84,0-1.53-0.7-1.53-1.56l0.01-5.59C152.96,131.48,153.65,130.78,154.49,130.79z"/>
		<path class="st9" d="M142.2,130.76l6.41,0.01c0.85,0.01,1.53,0.71,1.53,1.56l-0.02,5.59c0,0.85-0.69,1.55-1.53,1.54l-6.41-0.02
			c-0.84,0-1.53-0.7-1.53-1.56l0.02-5.59C140.67,131.44,141.36,130.75,142.2,130.76z"/>
		<path class="st9" d="M129.91,130.72l6.42,0.01c0.84,0,1.52,0.7,1.52,1.56l-0.01,5.58c0,0.86-0.69,1.55-1.53,1.55l-6.41-0.02
			c-0.85,0-1.53-0.7-1.53-1.55l0.01-5.59C128.38,131.41,129.07,130.72,129.91,130.72z"/>
		<path class="st9" d="M117.62,130.69l6.41,0.01c0.85,0.01,1.53,0.7,1.53,1.56l-0.01,5.59c-0.01,0.85-0.69,1.55-1.54,1.55
			l-6.41-0.02c-0.84-0.01-1.52-0.71-1.52-1.56l0.01-5.58C116.09,131.38,116.78,130.68,117.62,130.69z"/>
		<path class="st9" d="M105.33,130.65l6.41,0.01c0.84,0,1.53,0.71,1.53,1.56l-0.01,5.59c0,0.85-0.69,1.55-1.54,1.54l-6.41-0.02
			c-0.84,0-1.53-0.7-1.53-1.55l0.01-5.6C103.79,131.35,104.49,130.64,105.33,130.65z"/>
		<path class="st9" d="M93.04,130.61l6.42,0.02c0.84,0,1.53,0.71,1.52,1.56l-0.01,5.59c0,0.86-0.7,1.56-1.53,1.55l-6.42-0.02
			c-0.84-0.01-1.53-0.71-1.52-1.56l0.01-5.59C91.51,131.31,92.2,130.61,93.04,130.61z"/>
		<path class="st9" d="M80.75,130.58l6.41,0.02c0.84,0,1.53,0.71,1.53,1.56l-0.01,5.59c0,0.85-0.69,1.54-1.54,1.54l-6.41-0.01
			c-0.84,0-1.53-0.71-1.53-1.56l0.02-5.59C79.22,131.28,79.91,130.58,80.75,130.58z"/>
		<path class="st9" d="M68.46,130.54l6.41,0.02c0.84,0.01,1.53,0.7,1.52,1.56l-0.02,5.59c0,0.85-0.69,1.55-1.53,1.55l-6.41-0.02
			c-0.84-0.01-1.53-0.7-1.53-1.56l0.01-5.59C66.93,131.24,67.62,130.54,68.46,130.54z"/>
		<path class="st9" d="M54.66,130.51l7.41,0.02c0.84,0.01,1.53,0.7,1.53,1.56l-0.02,5.59c0,0.86-0.69,1.55-1.53,1.55l-7.41-0.02
			c-0.84,0-1.53-0.7-1.53-1.56l0.02-5.59C53.13,131.21,53.81,130.5,54.66,130.51z"/>
		<path class="st9" d="M215.42,141.61l6.6,0.03c1.01,0,1.83,0.84,1.83,1.87l-0.02,7.64c0,1.02-0.83,1.86-1.84,1.86l-6.61-0.02
			c-1.01-0.01-1.83-0.84-1.83-1.87l0.02-7.64C213.57,142.45,214.4,141.61,215.42,141.61z"/>
		<path class="st9" d="M202.08,141.58l6.61,0.02c1,0,1.83,0.85,1.83,1.87l-0.02,7.63c0,1.03-0.83,1.86-1.84,1.86l-6.61-0.02
			c-1.01,0-1.83-0.85-1.83-1.87l0.02-7.64C200.24,142.41,201.07,141.57,202.08,141.58z"/>
		<path class="st9" d="M188.75,141.54l6.61,0.01c1.01,0.01,1.84,0.85,1.83,1.87l-0.02,7.64c0,1.03-0.84,1.86-1.84,1.86l-6.61-0.02
			c-1.01,0-1.83-0.84-1.83-1.87l0.02-7.64C186.91,142.37,187.74,141.54,188.75,141.54z"/>
		<path class="st9" d="M175.41,141.5l6.61,0.02c1,0,1.83,0.84,1.83,1.87l-0.03,7.65c0,1.02-0.83,1.85-1.84,1.85l-6.61-0.02
			c-1,0-1.83-0.85-1.83-1.87l0.02-7.63C173.57,142.34,174.41,141.5,175.41,141.5z"/>
		<path class="st9" d="M162.07,141.47l6.61,0.02c1.01,0,1.83,0.85,1.83,1.86l-0.02,7.64c0,1.03-0.83,1.86-1.84,1.87l-6.61-0.02
			c-1.01,0-1.83-0.84-1.83-1.87l0.02-7.64C160.24,142.3,161.06,141.46,162.07,141.47z"/>
		<path class="st9" d="M148.84,141.74l6.61,0.02c1.01,0,1.83,0.85,1.83,1.86l-0.02,7.64c0,1.03-0.83,1.86-1.84,1.87l-6.61-0.02
			c-1,0-1.83-0.84-1.83-1.86l0.02-7.64C147,142.57,147.83,141.73,148.84,141.74z"/>
		<path class="st9" d="M135.41,141.39l6.61,0.02c1.01,0.01,1.84,0.85,1.83,1.87l-0.02,7.64c-0.01,1.02-0.83,1.86-1.84,1.86
			l-6.6-0.01c-1.01-0.01-1.83-0.85-1.83-1.87l0.02-7.64C133.57,142.22,134.4,141.39,135.41,141.39z"/>
		<path class="st9" d="M122.07,141.35l6.61,0.02c1.01,0,1.83,0.85,1.83,1.87l-0.02,7.64c0,1.02-0.83,1.86-1.84,1.85l-6.61-0.01
			c-1.01-0.01-1.83-0.85-1.83-1.87l0.02-7.64C120.24,142.18,121.06,141.35,122.07,141.35z"/>
		<path class="st9" d="M108.74,141.31l6.61,0.02c1.01,0,1.83,0.84,1.83,1.87l-0.02,7.64c0,1.02-0.83,1.86-1.84,1.86l-6.6-0.02
			c-1.01-0.01-1.83-0.85-1.83-1.87l0.02-7.64C106.9,142.15,107.73,141.31,108.74,141.31z"/>
		<path class="st9" d="M95.4,141.28l6.61,0.02c1.01,0,1.83,0.84,1.83,1.86l-0.02,7.64c-0.01,1.02-0.83,1.86-1.84,1.86l-6.61-0.02
			c-1.01,0-1.83-0.85-1.83-1.87l0.02-7.63C93.57,142.11,94.39,141.28,95.4,141.28z"/>
		<path class="st9" d="M82.07,141.25l6.61,0.02c1.01,0,1.83,0.84,1.83,1.87l-0.02,7.64c0,1.03-0.83,1.86-1.84,1.86l-6.61-0.02
			c-1.02,0-1.84-0.85-1.83-1.87l0.02-7.64C80.23,142.07,81.06,141.23,82.07,141.25z"/>
		<path class="st9" d="M68.73,141.2l6.61,0.02c1.01,0,1.84,0.85,1.83,1.87l-0.02,7.63c-0.01,1.03-0.83,1.87-1.84,1.86l-6.61-0.02
			c-1.01,0-1.83-0.84-1.83-1.86l0.03-7.64C66.9,142.04,67.73,141.2,68.73,141.2z"/>
		<path class="st9" d="M54.97,141.16l6.73,0.02c1.02,0,1.87,0.86,1.86,1.9l-0.02,7.57c0,1.04-0.85,1.9-1.88,1.89l-6.73-0.01
			c-1.03-0.01-1.87-0.86-1.87-1.91l0.03-7.57C53.09,142.02,53.94,141.17,54.97,141.16z"/>
		<path class="st9" d="M55.06,154.49l12.26,0.05c1.1,0,2,0.93,2,2.03l-0.02,7.31c-0.01,1.11-0.91,2.03-2.01,2.02l-12.26-0.05
			c-1.1,0-2-0.92-2-2.04l0.02-7.3C53.06,155.4,53.96,154.5,55.06,154.49z"/>
		<path class="st9" d="M55.02,167.82l16.47,0.04c1.1,0.01,2,0.92,1.99,2.04l-0.01,7.3c-0.01,1.12-0.91,2.02-2.01,2.02l-16.47-0.04
			c-1.1-0.01-2-0.92-1.99-2.03l0.02-7.31C53.02,168.73,53.92,167.82,55.02,167.82z"/>
		<path class="st9" d="M54.99,181.16l22.02,0.07c1.1,0,2,0.92,2,2.03l-0.02,7.31c-0.01,1.11-0.91,2.03-2.01,2.02l-22.02-0.07
			c-1.1,0-1.99-0.92-2-2.04l0.02-7.29C52.99,182.06,53.89,181.15,54.99,181.16z"/>
		<path class="st9" d="M54.95,194.48l9.8,0.02c1.1,0,2,0.92,1.99,2.03l-0.02,7.31c0,1.12-0.91,2.03-2.01,2.03l-9.8-0.03
			c-1.1,0-2-0.91-1.99-2.03l0.02-7.31C52.95,195.39,53.86,194.48,54.95,194.48z"/>
		<path class="st9" d="M74.54,154.55l7.07,0.02c1.09,0,1.97,0.9,1.96,2l-0.02,7.38c-0.01,1.1-0.89,2-1.98,1.99l-7.07-0.02
			c-1.08-0.01-1.96-0.9-1.96-2l0.02-7.37C72.58,155.44,73.46,154.55,74.54,154.55z"/>
		<path class="st9" d="M88.13,154.59l7.07,0.02c1.08,0,1.96,0.9,1.96,2l-0.02,7.37c0,1.1-0.89,2-1.97,2l-7.07-0.03
			c-1.09,0-1.97-0.9-1.96-2l0.01-7.37C86.16,155.48,87.05,154.58,88.13,154.59z"/>
		<path class="st9" d="M101.72,154.63l7.07,0.02c1.08,0,1.96,0.9,1.96,2l-0.02,7.37c0,1.1-0.88,2-1.96,2l-7.07-0.02
			c-1.08,0-1.97-0.91-1.96-2l0.02-7.38C99.75,155.52,100.64,154.62,101.72,154.63z"/>
		<path class="st9" d="M115.3,154.66l7.07,0.02c1.08,0,1.97,0.9,1.96,2l-0.01,7.38c-0.01,1.1-0.9,1.99-1.98,1.99l-7.07-0.02
			c-1.08,0-1.97-0.91-1.97-2l0.02-7.38C113.33,155.55,114.22,154.66,115.3,154.66z"/>
		<path class="st9" d="M128.88,154.7l7.08,0.02c1.08,0.01,1.96,0.91,1.96,2l-0.02,7.38c0,1.1-0.89,1.99-1.97,1.99l-7.08-0.02
			c-1.08,0-1.96-0.9-1.95-2l0.02-7.38C126.92,155.59,127.8,154.7,128.88,154.7z"/>
		<path class="st9" d="M142.47,154.74l7.08,0.02c1.08,0,1.96,0.9,1.96,2l-0.02,7.37c-0.01,1.1-0.89,1.99-1.98,1.99l-7.07-0.02
			c-1.08,0-1.97-0.9-1.96-2l0.03-7.37C140.5,155.64,141.38,154.74,142.47,154.74z"/>
		<path class="st9" d="M156.06,154.78l7.07,0.02c1.09,0.01,1.97,0.91,1.96,2l-0.02,7.37c0,1.1-0.89,1.99-1.97,1.98l-7.08-0.02
			c-1.08,0-1.96-0.9-1.96-2l0.02-7.37C154.08,155.67,154.97,154.78,156.06,154.78z"/>
		<path class="st9" d="M169.63,154.81l7.08,0.02c1.08,0,1.96,0.9,1.96,2l-0.02,7.38c0,1.09-0.89,1.99-1.97,1.99l-7.07-0.02
			c-1.09,0-1.97-0.91-1.97-2l0.03-7.37C167.67,155.71,168.56,154.81,169.63,154.81z"/>
		<path class="st9" d="M183.22,154.85l7.08,0.02c1.08,0,1.97,0.9,1.96,2l-0.01,7.38c-0.01,1.1-0.89,1.99-1.97,1.99l-7.08-0.01
			c-1.09-0.01-1.96-0.91-1.96-2l0.02-7.38C181.25,155.75,182.14,154.85,183.22,154.85z"/>
		<path class="st9" d="M196.81,154.89l7.07,0.02c1.08,0,1.97,0.91,1.96,2.01l-0.02,7.37c-0.01,1.1-0.89,1.99-1.97,1.99l-7.07-0.02
			c-1.08,0-1.97-0.9-1.97-2l0.02-7.37C194.83,155.79,195.73,154.89,196.81,154.89z"/>
		<path class="st9" d="M210.39,154.93l7.07,0.02c1.08,0,1.96,0.9,1.97,2l-0.03,7.37c0,1.1-0.89,1.99-1.97,1.99l-7.08-0.02
			c-1.08,0-1.96-0.9-1.96-2l0.02-7.37C208.43,155.82,209.31,154.93,210.39,154.93z"/>
		<path class="st9" d="M223.97,154.97l7.07,0.02c1.08,0,1.96,0.9,1.96,2l-0.02,7.38c0,1.09-0.89,1.99-1.98,1.98l-7.07-0.02
			c-1.08,0-1.97-0.91-1.96-2l0.02-7.37C222.01,155.86,222.89,154.97,223.97,154.97z"/>
		<path class="st9" d="M78.28,167.89l7.08,0.02c1.08,0,1.96,0.9,1.96,2l-0.02,7.38c-0.01,1.09-0.89,1.99-1.97,1.98l-7.08-0.02
			c-1.08,0-1.96-0.9-1.96-2l0.02-7.37C76.32,168.78,77.2,167.89,78.28,167.89z"/>
		<path class="st9" d="M91.88,167.93l7.07,0.02c1.08,0,1.96,0.9,1.96,2l-0.02,7.38c0,1.1-0.9,1.99-1.97,1.99l-7.07-0.02
			c-1.09,0-1.97-0.9-1.96-1.99l0.02-7.38C89.91,168.82,90.79,167.92,91.88,167.93z"/>
		<path class="st9" d="M105.46,167.97l7.07,0.02c1.08,0,1.96,0.91,1.96,2.01l-0.02,7.37c0,1.1-0.88,2-1.97,1.99l-7.08-0.02
			c-1.08,0-1.96-0.9-1.96-2l0.02-7.37C103.48,168.86,104.37,167.96,105.46,167.97z"/>
		<path class="st9" d="M119.05,168l7.07,0.02c1.08,0,1.97,0.9,1.96,2l-0.02,7.37c-0.01,1.1-0.89,2-1.97,1.99l-7.07-0.02
			c-1.08-0.01-1.97-0.91-1.97-2l0.01-7.37C117.07,168.9,117.96,168,119.05,168z"/>
		<path class="st9" d="M132.63,168.04l7.07,0.02c1.08,0.01,1.97,0.91,1.96,2l-0.02,7.37c0,1.1-0.89,1.99-1.97,1.99l-7.07-0.02
			c-1.08,0-1.96-0.91-1.96-2l0.02-7.38C130.66,168.94,131.55,168.04,132.63,168.04z"/>
		<path class="st9" d="M146.21,168.08l7.07,0.02c1.08,0.01,1.96,0.91,1.96,2l-0.02,7.37c0,1.1-0.89,1.99-1.97,1.99l-7.07-0.02
			c-1.08,0-1.96-0.9-1.96-2l0.02-7.37C144.24,168.98,145.13,168.08,146.21,168.08z"/>
		<path class="st9" d="M159.8,168.11l7.08,0.02c1.08,0,1.97,0.9,1.96,2l-0.02,7.38c-0.01,1.09-0.9,1.99-1.98,1.99l-7.07-0.02
			c-1.08-0.01-1.96-0.9-1.96-2l0.02-7.37C157.83,169.01,158.71,168.12,159.8,168.11z"/>
		<path class="st9" d="M173.38,168.15l7.07,0.02c1.08,0.01,1.97,0.91,1.97,2l-0.02,7.38c0,1.09-0.89,1.99-1.97,1.99l-7.07-0.02
			c-1.08,0-1.97-0.9-1.96-2l0.02-7.37C171.41,169.05,172.29,168.15,173.38,168.15z"/>
		<path class="st9" d="M186.96,168.19l7.07,0.02c1.08,0,1.97,0.9,1.96,2l-0.02,7.38c0,1.09-0.89,1.99-1.97,1.99l-7.07-0.01
			c-1.08,0-1.96-0.9-1.96-2l0.02-7.38C185,169.09,185.88,168.19,186.96,168.19z"/>
		<path class="st9" d="M200.55,168.23l7.08,0.02c1.08,0.01,1.96,0.9,1.96,2l-0.02,7.37c0,1.1-0.89,2-1.97,2l-7.07-0.03
			c-1.09,0-1.97-0.9-1.96-2l0.02-7.37C198.58,169.13,199.47,168.22,200.55,168.23z"/>
		<path class="st9" d="M214.13,168.27l7.07,0.02c1.08,0,1.97,0.91,1.96,2l-0.02,7.37c0,1.1-0.89,2-1.97,1.99l-7.08-0.01
			c-1.08,0-1.97-0.9-1.96-2l0.02-7.38C212.16,169.16,213.05,168.26,214.13,168.27z"/>
		<path class="st9" d="M85.36,181.24l7.08,0.01c1.07,0.01,1.96,0.91,1.95,2.01l-0.01,7.37c-0.01,1.1-0.9,1.99-1.98,1.99l-7.07-0.02
			c-1.09,0-1.97-0.9-1.96-2.01l0.02-7.37C83.4,182.13,84.28,181.23,85.36,181.24z"/>
		<path class="st9" d="M98.95,181.27l7.07,0.02c1.08,0,1.97,0.9,1.96,1.99l-0.02,7.38c0,1.09-0.89,1.99-1.97,1.99l-7.07-0.02
			c-1.08-0.01-1.97-0.91-1.96-2l0.02-7.37C96.98,182.17,97.87,181.27,98.95,181.27z"/>
		<path class="st9" d="M112.53,181.31l7.08,0.02c1.08,0,1.97,0.91,1.96,2l-0.02,7.38c-0.01,1.1-0.89,1.99-1.97,1.99l-7.07-0.02
			c-1.09-0.01-1.97-0.91-1.97-2l0.02-7.37C110.56,182.21,111.45,181.31,112.53,181.31z"/>
		<path class="st9" d="M126.11,181.35l7.07,0.03c1.08,0,1.97,0.9,1.97,2l-0.02,7.38c0,1.09-0.89,1.99-1.98,1.99l-7.07-0.02
			c-1.08,0-1.97-0.91-1.96-2l0.02-7.38C124.15,182.24,125.03,181.35,126.11,181.35z"/>
		<path class="st9" d="M139.7,181.39l7.08,0.02c1.08,0.01,1.96,0.9,1.96,2l-0.02,7.37c0.01,1.1-0.89,1.99-1.97,1.99l-7.07-0.02
			c-1.08,0-1.97-0.9-1.96-2l0.02-7.37C137.73,182.27,138.62,181.38,139.7,181.39z"/>
		<path class="st9" d="M153.29,181.42l7.08,0.02c1.08,0,1.97,0.9,1.96,2l-0.02,7.37c0,1.1-0.89,1.99-1.97,1.99l-7.07-0.02
			c-1.08-0.01-1.97-0.9-1.96-2l0.01-7.38C151.31,182.32,152.2,181.43,153.29,181.42z"/>
		<path class="st9" d="M166.88,181.47l7.07,0.01c1.08,0.01,1.96,0.91,1.96,2.01l-0.02,7.37c0,1.1-0.89,1.99-1.97,1.99l-7.07-0.02
			c-1.08,0-1.97-0.9-1.96-2l0.01-7.37C164.9,182.36,165.79,181.47,166.88,181.47z"/>
		<path class="st9" d="M180.45,181.5l7.08,0.02c1.09,0.01,1.97,0.9,1.96,2l-0.01,7.37c-0.01,1.1-0.9,1.99-1.98,1.99l-7.08-0.03
			c-1.08,0-1.97-0.9-1.95-2l0.02-7.37C178.49,182.4,179.37,181.5,180.45,181.5z"/>
		<path class="st9" d="M194.05,181.54l7.07,0.02c1.08,0,1.96,0.9,1.96,2l-0.02,7.37c0,1.1-0.89,2-1.96,1.99l-7.08-0.02
			c-1.08-0.01-1.96-0.9-1.96-2l0.02-7.37C192.07,182.43,192.96,181.54,194.05,181.54z"/>
		<path class="st9" d="M207.62,181.58l7.08,0.02c1.09,0,1.96,0.9,1.96,2l-0.02,7.38c0,1.09-0.89,1.99-1.97,1.99l-7.07-0.03
			c-1.09,0-1.97-0.91-1.97-2l0.02-7.37C205.65,182.47,206.54,181.58,207.62,181.58z"/>
		<path class="st9" d="M221.24,181.62l12.79,0.03c1.1,0,2.01,0.92,2,2.04l-0.02,7.3c0,1.12-0.91,2.03-2.01,2.03l-12.79-0.04
			c-1.11,0-2-0.91-2-2.03l0.03-7.3C219.24,182.53,220.14,181.61,221.24,181.62z"/>
		<path class="st9" d="M71.52,194.53l7.07,0.02c1.09,0,1.96,0.9,1.97,2l-0.02,7.37c0,1.1-0.89,1.99-1.97,1.99l-7.07-0.02
			c-1.08,0-1.97-0.9-1.96-2l0.02-7.37C69.56,195.42,70.44,194.53,71.52,194.53z"/>
		<path class="st9" d="M85.11,194.56l7.07,0.02c1.09,0,1.97,0.9,1.96,2l-0.02,7.38c0,1.09-0.89,1.99-1.97,1.99l-7.07-0.02
			c-1.08,0-1.96-0.9-1.96-2l0.02-7.37C83.13,195.46,84.02,194.56,85.11,194.56z"/>
		<path class="st9" d="M98.69,194.6l7.08,0.02c1.08,0,1.96,0.91,1.96,2.01l-0.02,7.37c-0.01,1.09-0.89,1.99-1.98,1.99l-7.07-0.02
			c-1.08-0.01-1.97-0.91-1.96-2l0.01-7.37C96.73,195.5,97.61,194.6,98.69,194.6z"/>
		<path class="st9" d="M112.28,194.64l7.08,0.02c1.08,0,1.97,0.9,1.96,2l-0.02,7.37c0,1.1-0.9,1.99-1.97,1.99l-7.07-0.02
			c-1.08,0-1.97-0.9-1.96-2l0.02-7.38C110.31,195.53,111.19,194.64,112.28,194.64z"/>
		<path class="st9" d="M125.86,194.68l7.07,0.02c1.08,0.01,1.97,0.9,1.96,2l-0.02,7.38c0,1.09-0.89,1.99-1.97,1.99l-7.08-0.02
			c-1.08,0-1.96-0.9-1.96-2l0.02-7.37C123.89,195.57,124.78,194.67,125.86,194.68z"/>
		<path class="st9" d="M139.44,194.72l7.07,0.01c1.08,0.01,1.97,0.91,1.97,2.01l-0.02,7.38c0,1.09-0.89,1.99-1.98,1.99l-7.07-0.02
			c-1.08-0.01-1.97-0.91-1.96-2l0.02-7.37C137.48,195.61,138.36,194.72,139.44,194.72z"/>
		<path class="st9" d="M153.03,194.75l7.08,0.02c1.08,0,1.97,0.91,1.95,2l-0.02,7.38c0,1.1-0.89,1.99-1.98,1.99l-7.07-0.02
			c-1.08,0-1.96-0.9-1.96-2l0.02-7.37C151.06,195.65,151.95,194.75,153.03,194.75z"/>
		<path class="st9" d="M166.61,194.79l7.08,0.02c1.09,0.01,1.96,0.91,1.96,2.01l-0.02,7.37c0,1.1-0.88,1.99-1.97,1.99l-7.08-0.03
			c-1.08,0-1.97-0.9-1.96-2l0.02-7.37C164.64,195.69,165.53,194.79,166.61,194.79z"/>
		<path class="st9" d="M180.19,194.83l7.08,0.02c1.08,0.01,1.96,0.91,1.97,2l-0.02,7.37c-0.01,1.09-0.89,1.99-1.98,1.99l-7.08-0.02
			c-1.08,0-1.97-0.9-1.96-1.99l0.02-7.38C178.23,195.72,179.12,194.83,180.19,194.83z"/>
		<path class="st9" d="M193.78,194.87l7.08,0.01c1.08,0.01,1.96,0.91,1.96,2l-0.02,7.37c0,1.11-0.89,1.99-1.97,2l-7.08-0.02
			c-1.08,0-1.96-0.9-1.96-1.99l0.02-7.38C191.82,195.77,192.7,194.87,193.78,194.87z"/>
		<path class="st9" d="M207.4,194.91l12.8,0.03c1.1,0.01,2,0.92,1.99,2.04l-0.02,7.31c-0.01,1.11-0.91,2.02-2.01,2.02l-12.79-0.04
			c-1.1,0-2-0.92-1.99-2.04l0.02-7.3C205.4,195.81,206.3,194.9,207.4,194.91z"/>
		<path class="st9" d="M227.4,194.96l6.73,0.02c1.03,0,1.87,0.86,1.87,1.9l-0.02,7.57c0,1.05-0.85,1.9-1.88,1.89l-6.73-0.01
			c-1.03-0.01-1.88-0.87-1.87-1.91l0.02-7.57C225.53,195.81,226.37,194.96,227.4,194.96z"/>
		<path class="st9" d="M189.53,254.69c0,3.58-2.86,6.49-6.4,6.49h-53.37c-3.53,0-6.4-2.9-6.4-6.49v-32.36c0-3.58,2.86-6.49,6.4-6.49
			h53.37c3.53,0,6.4,2.9,6.4,6.49V254.69z"/>
		<g>
			<path class="st10" d="M190.68,230.23v-8.11c0-3.58-2.86-6.49-6.4-6.49h-53.87c-3.53,0-6.4,2.91-6.4,6.49v8.11H190.68z"/>
			<path class="st8" d="M157.1,215.62h-26.68c-3.53,0-6.4,2.91-6.4,6.49v8.11h33.08V215.62z"/>
		</g>
		<rect x="26.82" y="97.94" class="st10" width="261.05" height="18.14"/>
	</g>
	<g>
		<g>
			<path class="st11" d="M133.79,252.77l-0.32-0.14c-3.23-1.42-6.99,0.09-8.39,3.37l-6.78,15.85c-0.08,0.05-0.16,0.1-0.24,0.15
				c0-0.03,0.01-0.06,0.02-0.1l4.74-37.61c0.45-3.55-2.02-6.79-5.52-7.24l-0.34-0.05c-3.5-0.45-6.7,2.05-7.15,5.6l-1.97,20.11
				c-0.25-0.05-0.93-0.03-0.93-0.03l-1.27-27.43c-0.14-3.57-3.12-6.35-6.63-6.21l-0.35,0.02c-3.52,0.15-6.26,3.16-6.11,6.73
				l1.93,27.68l-1.43,0.07l-4.29-27.13c-0.57-3.54-3.85-5.92-7.32-5.35l-0.35,0.06c-3.47,0.57-5.84,3.9-5.27,7.42l4.97,27.33
				c0,0-1.3,0.18-1.63,0.45l-2.73-12.04c-0.61-2.68-3.25-4.36-5.89-3.74l-0.19,0.04c-2.65,0.62-4.3,3.29-3.69,5.98
				c0,0,5.71,25.57,6.7,34.12c0.98,8.55,9.98,18.11,19.9,16.94l18.72-2.22c17.39-2.07,25.19-33.75,25.19-33.75
				C138.55,258.39,137.02,254.19,133.79,252.77z"/>
			<polygon class="st12" points="119.95,370 119.8,292.77 78.41,292.77 78.33,370 			"/>
		</g>
		<g>
			<path class="st11" d="M164.81,258.21l0.32-0.14c3.23-1.42,6.99,0.09,8.39,3.37l6.78,15.85c0.08,0.05,0.16,0.1,0.24,0.15
				c0-0.03-0.01-0.06-0.02-0.1l-4.74-37.61c-0.45-3.55,2.02-6.79,5.52-7.24l0.34-0.05c3.5-0.45,6.7,2.05,7.15,5.6l1.97,20.11
				c0.25-0.05,0.93-0.03,0.93-0.03l1.27-27.43c0.14-3.57,3.12-6.35,6.63-6.21l0.35,0.02c3.52,0.15,6.26,3.16,6.11,6.73l-1.93,27.68
				l1.43,0.07l4.29-27.13c0.57-3.54,3.85-5.92,7.32-5.35l0.35,0.06c3.47,0.57,5.84,3.9,5.27,7.42l-4.97,27.33
				c0,0,1.3,0.18,1.63,0.45l2.73-12.04c0.61-2.68,3.25-4.36,5.89-3.74l0.19,0.04c2.65,0.62,4.3,3.29,3.69,5.98
				c0,0-5.71,25.57-6.7,34.12c-0.98,8.55-9.98,18.11-19.9,16.94l-18.72-2.22c-17.39-2.07-25.19-33.75-25.19-33.75
				C160.05,263.83,161.58,259.64,164.81,258.21z"/>
			<polygon class="st12" points="220.25,370 220.19,298.21 178.8,298.21 178.69,370 			"/>
		</g>
	</g>
</g>
<g>
	<g>
		<path class="st8" d="M1199.49,260.4l-229.48,0.76c-2.95,0.01-5.36-2.43-5.37-5.41l-0.49-150.99c-0.01-2.99,2.39-5.43,5.34-5.44
			l229.48-0.77c2.94-0.01,5.36,2.43,5.37,5.41l0.48,150.98C1204.84,257.94,1202.44,260.4,1199.49,260.4z"/>
		<path class="st9" d="M989.27,238.93l-7.41-0.02c-0.84,0-1.53-0.71-1.53-1.56l0.02-5.59c0.01-0.86,0.69-1.55,1.54-1.55l7.41,0.02
			c0.84,0,1.53,0.7,1.53,1.55l-0.02,5.59C990.8,238.24,990.1,238.94,989.27,238.93z"/>
		<path class="st9" d="M988.95,228.28l-6.73-0.02c-1.02,0-1.87-0.86-1.86-1.9l0.02-7.57c0.01-1.04,0.85-1.89,1.87-1.89l6.74,0.02
			c1.02,0,1.86,0.86,1.86,1.9l-0.02,7.57C990.82,227.43,989.98,228.28,988.95,228.28z"/>
		<path class="st9" d="M988.99,214.94l-6.73-0.01c-1.04,0-1.87-0.86-1.87-1.91l0.02-7.56c0-1.05,0.85-1.9,1.87-1.89l6.73,0.02
			c1.03,0,1.87,0.86,1.86,1.9l-0.02,7.57C990.87,214.1,990.02,214.95,988.99,214.94z"/>
		<path class="st9" d="M989.03,201.62l-6.73-0.02c-1.03,0-1.87-0.86-1.87-1.9l0.02-7.57c0.01-1.05,0.85-1.89,1.88-1.89l6.73,0.02
			c1.02,0.01,1.87,0.86,1.87,1.91l-0.02,7.56C990.9,200.78,990.06,201.62,989.03,201.62z"/>
		<path class="st9" d="M989.06,188.3l-6.73-0.02c-1.03,0-1.87-0.86-1.86-1.9l0.02-7.56c0-1.05,0.85-1.9,1.87-1.9l6.73,0.02
			c1.03,0.01,1.87,0.86,1.87,1.9l-0.02,7.57C990.93,187.44,990.09,188.29,989.06,188.3z"/>
		<path class="st9" d="M989.1,174.96l-6.73-0.02c-1.03,0-1.87-0.86-1.87-1.9l0.02-7.57c0.01-1.04,0.85-1.89,1.88-1.89l6.73,0.02
			c1.03,0,1.87,0.86,1.87,1.9l-0.02,7.57C990.98,174.12,990.13,174.96,989.1,174.96z"/>
		<path class="st9" d="M1002.36,238.97l-7.41-0.02c-0.84,0-1.53-0.71-1.52-1.55l0.01-5.59c0.01-0.86,0.7-1.55,1.54-1.55l7.41,0.02
			c0.84,0,1.53,0.7,1.52,1.55l-0.02,5.59C1003.89,238.27,1003.2,238.97,1002.36,238.97z"/>
		<path class="st9" d="M1014.01,228.35l-18.57-0.05c-1.11,0-1.99-0.92-1.99-2.03l0.02-7.3c0-1.12,0.9-2.03,2-2.03l18.57,0.05
			c1.1,0.01,2,0.92,2,2.04l-0.02,7.3C1016.01,227.44,1015.11,228.35,1014.01,228.35z"/>
		<path class="st9" d="M1005.52,215l-10.04-0.04c-1.1,0-1.99-0.92-2-2.03l0.02-7.3c0.01-1.11,0.91-2.03,2.01-2.02l10.04,0.02
			c1.1,0.01,2,0.92,1.99,2.03l-0.02,7.31C1007.52,214.09,1006.61,214.99,1005.52,215z"/>
		<path class="st9" d="M1015.55,201.69l-20.04-0.06c-1.1,0-2-0.92-2-2.04l0.02-7.3c0-1.12,0.91-2.03,2.01-2.03l20.04,0.05
			c1.1,0.01,2,0.93,1.99,2.04l-0.01,7.3C1017.56,200.79,1016.66,201.7,1015.55,201.69z"/>
		<path class="st9" d="M1002.16,188.33l-6.74-0.02c-1.02,0-1.86-0.87-1.86-1.91l0.02-7.57c0.01-1.04,0.85-1.88,1.88-1.89l6.73,0.02
			c1.03,0,1.87,0.86,1.86,1.9l-0.02,7.57C1004.03,187.48,1003.18,188.33,1002.16,188.33z"/>
		<path class="st9" d="M1002.19,175l-6.72-0.02c-1.04,0-1.88-0.86-1.87-1.9l0.02-7.57c0.01-1.04,0.85-1.89,1.88-1.89l6.73,0.02
			c1.03,0,1.87,0.86,1.87,1.9l-0.02,7.57C1004.06,174.15,1003.22,175,1002.19,175z"/>
		<path class="st9" d="M1014.45,239.01l-6.41-0.02c-0.84,0-1.53-0.7-1.53-1.56l0.02-5.59c0.01-0.86,0.69-1.55,1.54-1.55l6.41,0.02
			c0.84,0,1.54,0.71,1.52,1.56l-0.01,5.59C1015.99,238.31,1015.29,239.01,1014.45,239.01z"/>
		<path class="st9" d="M1026.74,239.04l-6.41-0.01c-0.85-0.01-1.54-0.71-1.53-1.57l0.02-5.58c0-0.86,0.69-1.56,1.53-1.56l6.41,0.02
			c0.84,0,1.53,0.7,1.52,1.56l-0.01,5.59C1028.27,238.35,1027.58,239.04,1026.74,239.04z"/>
		<path class="st9" d="M1039.02,239.08l-6.41-0.02c-0.84-0.01-1.52-0.7-1.52-1.56l0.02-5.59c0-0.85,0.69-1.55,1.54-1.55l6.41,0.02
			c0.85,0,1.53,0.7,1.52,1.56l-0.01,5.58C1040.56,238.38,1039.88,239.08,1039.02,239.08z"/>
		<path class="st9" d="M1051.32,239.11l-6.42-0.01c-0.84-0.01-1.53-0.71-1.53-1.56l0.02-5.58c0-0.86,0.69-1.56,1.53-1.56l6.41,0.02
			c0.85,0,1.53,0.71,1.53,1.56l-0.01,5.58C1052.85,238.42,1052.16,239.11,1051.32,239.11z"/>
		<path class="st9" d="M1063.6,239.15l-6.4-0.02c-0.84-0.01-1.53-0.71-1.53-1.56l0.02-5.59c0.01-0.86,0.7-1.56,1.54-1.55l6.41,0.02
			c0.84,0.01,1.53,0.71,1.53,1.56l-0.02,5.59C1065.14,238.45,1064.45,239.15,1063.6,239.15z"/>
		<path class="st9" d="M1075.9,239.18l-6.41-0.01c-0.84,0-1.53-0.71-1.53-1.56l0.01-5.59c0.01-0.85,0.7-1.54,1.54-1.55l6.41,0.02
			c0.84,0,1.53,0.71,1.53,1.56l-0.01,5.59C1077.43,238.49,1076.74,239.18,1075.9,239.18z"/>
		<path class="st9" d="M1088.19,239.21l-6.42-0.01c-0.84-0.01-1.53-0.7-1.53-1.56l0.02-5.59c0-0.86,0.69-1.55,1.54-1.55l6.41,0.02
			c0.84,0,1.53,0.7,1.53,1.56l-0.01,5.59C1089.73,238.52,1089.03,239.22,1088.19,239.21z"/>
		<path class="st9" d="M1100.48,239.24l-6.41-0.01c-0.85-0.01-1.53-0.7-1.53-1.56l0.02-5.59c0-0.85,0.69-1.55,1.53-1.54l6.41,0.02
			c0.84,0,1.53,0.7,1.52,1.56l-0.02,5.59C1102.01,238.56,1101.32,239.25,1100.48,239.24z"/>
		<path class="st9" d="M1112.77,239.28l-6.42-0.01c-0.84,0-1.53-0.7-1.52-1.56l0.02-5.58c0-0.86,0.69-1.55,1.53-1.55l6.41,0.02
			c0.85,0,1.53,0.7,1.53,1.55l-0.01,5.59C1114.3,238.59,1113.61,239.28,1112.77,239.28z"/>
		<path class="st9" d="M1125.06,239.31l-6.41-0.01c-0.84-0.01-1.53-0.7-1.52-1.56l0.01-5.59c0.01-0.85,0.69-1.55,1.54-1.55
			l6.42,0.02c0.84,0.01,1.52,0.71,1.52,1.56l-0.01,5.58C1126.59,238.62,1125.9,239.32,1125.06,239.31z"/>
		<path class="st9" d="M1137.35,239.35l-6.41-0.01c-0.85,0-1.53-0.7-1.53-1.56l0.01-5.59c0-0.85,0.69-1.55,1.54-1.54l6.42,0.02
			c0.84,0,1.53,0.7,1.52,1.55l-0.01,5.59C1138.89,238.65,1138.19,239.36,1137.35,239.35z"/>
		<path class="st9" d="M1149.64,239.39l-6.42-0.02c-0.84-0.01-1.53-0.71-1.52-1.56l0.01-5.59c0-0.86,0.69-1.56,1.53-1.55l6.42,0.02
			c0.84,0.01,1.53,0.71,1.52,1.56l-0.01,5.59C1151.17,238.69,1150.48,239.39,1149.64,239.39z"/>
		<path class="st9" d="M1161.93,239.42l-6.41-0.02c-0.84,0-1.53-0.71-1.53-1.56l0.01-5.59c0-0.85,0.7-1.54,1.54-1.54l6.41,0.01
			c0.84,0,1.52,0.71,1.53,1.56l-0.02,5.59C1163.46,238.72,1162.77,239.42,1161.93,239.42z"/>
		<path class="st9" d="M1174.22,239.46l-6.41-0.02c-0.84-0.01-1.53-0.7-1.52-1.56l0.02-5.59c0-0.85,0.69-1.55,1.53-1.55l6.41,0.02
			c0.84,0.01,1.53,0.7,1.53,1.56l-0.02,5.59C1175.76,238.76,1175.06,239.46,1174.22,239.46z"/>
		<path class="st9" d="M1188.02,239.49l-7.41-0.02c-0.84-0.01-1.53-0.7-1.53-1.56l0.02-5.59c0-0.86,0.69-1.56,1.53-1.55l7.41,0.02
			c0.84,0,1.53,0.7,1.53,1.56l-0.02,5.58C1189.56,238.8,1188.87,239.5,1188.02,239.49z"/>
		<path class="st9" d="M1027.27,228.39l-6.6-0.02c-1.01,0-1.83-0.84-1.83-1.87l0.02-7.64c0-1.02,0.83-1.86,1.84-1.86l6.61,0.02
			c1.01,0.01,1.83,0.85,1.83,1.87l-0.02,7.64C1029.11,227.55,1028.28,228.39,1027.27,228.39z"/>
		<path class="st9" d="M1040.6,228.42l-6.61-0.02c-1,0-1.83-0.85-1.83-1.87l0.02-7.63c0-1.03,0.83-1.86,1.84-1.86l6.61,0.02
			c1.01,0,1.83,0.85,1.83,1.87l-0.02,7.64C1042.45,227.59,1041.61,228.43,1040.6,228.42z"/>
		<path class="st9" d="M1053.94,228.46l-6.61-0.01c-1.01-0.01-1.84-0.85-1.83-1.87l0.02-7.64c0-1.03,0.83-1.86,1.84-1.86l6.6,0.02
			c1.01,0,1.83,0.84,1.83,1.87l-0.02,7.64C1055.77,227.63,1054.95,228.46,1053.94,228.46z"/>
		<path class="st9" d="M1067.27,228.5l-6.61-0.02c-1,0-1.83-0.84-1.83-1.87l0.03-7.64c0-1.02,0.83-1.85,1.84-1.85l6.61,0.02
			c1,0,1.83,0.85,1.83,1.87l-0.02,7.63C1069.11,227.66,1068.27,228.5,1067.27,228.5z"/>
		<path class="st9" d="M1080.61,228.53l-6.61-0.02c-1.01,0-1.83-0.84-1.83-1.86l0.02-7.64c0.01-1.03,0.83-1.86,1.84-1.87l6.61,0.02
			c1.01,0,1.83,0.84,1.83,1.87l-0.02,7.64C1082.44,227.7,1081.62,228.54,1080.61,228.53z"/>
		<path class="st9" d="M1093.84,228.26l-6.61-0.02c-1.01,0-1.83-0.85-1.83-1.86l0.02-7.64c0-1.03,0.83-1.86,1.84-1.87l6.61,0.02
			c1,0,1.83,0.84,1.83,1.87l-0.02,7.64C1095.68,227.43,1094.85,228.27,1093.84,228.26z"/>
		<path class="st9" d="M1107.27,228.61l-6.61-0.02c-1.01-0.01-1.84-0.85-1.83-1.87l0.02-7.64c0.01-1.02,0.83-1.86,1.84-1.86
			l6.6,0.01c1.01,0.01,1.83,0.85,1.84,1.87l-0.02,7.64C1109.11,227.78,1108.28,228.61,1107.27,228.61z"/>
		<path class="st9" d="M1120.61,228.65l-6.61-0.02c-1.01,0-1.83-0.85-1.83-1.87l0.02-7.64c0-1.02,0.83-1.86,1.84-1.85l6.61,0.01
			c1.01,0.01,1.83,0.85,1.83,1.87l-0.02,7.64C1122.45,227.82,1121.62,228.65,1120.61,228.65z"/>
		<path class="st9" d="M1133.94,228.69l-6.6-0.02c-1.01,0-1.83-0.84-1.83-1.86l0.02-7.64c0-1.02,0.83-1.86,1.84-1.86l6.6,0.01
			c1.01,0.01,1.83,0.85,1.83,1.87l-0.02,7.64C1135.78,227.85,1134.95,228.69,1133.94,228.69z"/>
		<path class="st9" d="M1147.28,228.72l-6.61-0.02c-1.01,0-1.83-0.84-1.83-1.86l0.02-7.64c0.01-1.03,0.83-1.86,1.84-1.86l6.61,0.02
			c1.01,0.01,1.83,0.85,1.83,1.87l-0.02,7.63C1149.11,227.89,1148.29,228.72,1147.28,228.72z"/>
		<path class="st9" d="M1160.61,228.75l-6.61-0.02c-1.01,0-1.83-0.84-1.83-1.86l0.02-7.64c0-1.03,0.83-1.86,1.84-1.86l6.61,0.02
			c1.02,0,1.84,0.84,1.83,1.87l-0.02,7.64C1162.45,227.93,1161.62,228.77,1160.61,228.75z"/>
		<path class="st9" d="M1173.95,228.8l-6.61-0.02c-1.01,0-1.84-0.85-1.83-1.87l0.02-7.63c0.01-1.03,0.83-1.87,1.84-1.86l6.61,0.02
			c1.01,0,1.83,0.84,1.83,1.86l-0.02,7.64C1175.78,227.96,1174.96,228.8,1173.95,228.8z"/>
		<path class="st9" d="M1187.71,228.83l-6.73-0.02c-1.02,0-1.87-0.86-1.86-1.9l0.02-7.57c0-1.04,0.85-1.9,1.88-1.89l6.73,0.01
			c1.03,0.01,1.87,0.86,1.86,1.91l-0.02,7.57C1189.59,227.98,1188.74,228.83,1187.71,228.83z"/>
		<path class="st9" d="M1187.62,215.51l-12.26-0.04c-1.1,0-2-0.93-2-2.03l0.02-7.31c0.01-1.11,0.92-2.03,2.01-2.02l12.26,0.05
			c1.1,0,2,0.92,2,2.04l-0.02,7.3C1189.63,214.6,1188.72,215.5,1187.62,215.51z"/>
		<path class="st9" d="M1187.66,202.18l-16.47-0.05c-1.1-0.01-2-0.92-1.99-2.04l0.01-7.3c0.01-1.12,0.91-2.02,2.01-2.02l16.47,0.04
			c1.1,0.01,1.99,0.91,1.99,2.03l-0.02,7.31C1189.66,201.27,1188.76,202.18,1187.66,202.18z"/>
		<path class="st9" d="M1187.69,188.84l-22.02-0.07c-1.1,0.01-2-0.92-2-2.03l0.02-7.31c0.01-1.11,0.91-2.03,2.01-2.02l22.02,0.07
			c1.1,0,1.99,0.92,2,2.04l-0.02,7.29C1189.7,187.94,1188.79,188.85,1187.69,188.84z"/>
		<path class="st9" d="M1187.73,175.52l-9.8-0.02c-1.1,0-2-0.92-1.99-2.03l0.02-7.31c0-1.12,0.91-2.03,2.01-2.03l9.8,0.03
			c1.1,0,2,0.91,1.99,2.03l-0.02,7.31C1189.73,174.61,1188.83,175.52,1187.73,175.52z"/>
		<path class="st9" d="M1168.14,215.45l-7.07-0.02c-1.09,0-1.97-0.9-1.97-1.99l0.02-7.38c0.01-1.1,0.89-2,1.98-1.99l7.07,0.02
			c1.08,0.01,1.96,0.91,1.96,2l-0.02,7.38C1170.11,214.56,1169.22,215.45,1168.14,215.45z"/>
		<path class="st9" d="M1154.55,215.41l-7.07-0.02c-1.08,0-1.96-0.91-1.96-2l0.02-7.37c0-1.1,0.89-1.99,1.97-2l7.07,0.03
			c1.09,0,1.97,0.9,1.96,2l-0.01,7.37C1156.52,214.52,1155.63,215.42,1154.55,215.41z"/>
		<path class="st9" d="M1140.97,215.37l-7.08-0.02c-1.08,0-1.96-0.9-1.96-2l0.02-7.37c0-1.1,0.88-2,1.96-2l7.08,0.02
			c1.08,0,1.97,0.91,1.96,2l-0.02,7.38C1142.94,214.48,1142.05,215.38,1140.97,215.37z"/>
		<path class="st9" d="M1127.38,215.34l-7.07-0.02c-1.08,0-1.97-0.9-1.96-2l0.01-7.38c0.01-1.1,0.9-1.99,1.98-1.99l7.07,0.02
			c1.08,0,1.97,0.91,1.97,2l-0.02,7.38C1129.35,214.44,1128.46,215.34,1127.38,215.34z"/>
		<path class="st9" d="M1113.8,215.3l-7.08-0.02c-1.08-0.01-1.96-0.91-1.96-2l0.02-7.38c0-1.1,0.89-1.99,1.97-1.99l7.08,0.02
			c1.08,0,1.96,0.9,1.95,2l-0.02,7.38C1115.76,214.41,1114.88,215.3,1113.8,215.3z"/>
		<path class="st9" d="M1100.22,215.26l-7.08-0.02c-1.08,0-1.96-0.9-1.96-2l0.02-7.37c0.01-1.1,0.89-1.99,1.98-1.99l7.07,0.02
			c1.08,0,1.97,0.9,1.96,2l-0.03,7.37C1102.19,214.36,1101.3,215.26,1100.22,215.26z"/>
		<path class="st9" d="M1086.63,215.22l-7.07-0.02c-1.09-0.01-1.97-0.91-1.96-2l0.02-7.37c0-1.1,0.89-1.99,1.97-1.98l7.08,0.02
			c1.08,0,1.96,0.9,1.96,2l-0.02,7.38C1088.6,214.33,1087.71,215.22,1086.63,215.22z"/>
		<path class="st9" d="M1073.05,215.19l-7.08-0.02c-1.08,0-1.96-0.9-1.96-2l0.02-7.38c0-1.09,0.89-1.99,1.97-1.99l7.08,0.02
			c1.09,0,1.97,0.91,1.97,2l-0.03,7.37C1075.01,214.29,1074.13,215.19,1073.05,215.19z"/>
		<path class="st9" d="M1059.46,215.15l-7.08-0.02c-1.08,0-1.96-0.9-1.96-2l0.01-7.38c0.01-1.1,0.89-1.99,1.97-1.99l7.08,0.01
			c1.09,0.01,1.96,0.91,1.96,2l-0.02,7.38C1061.43,214.25,1060.54,215.15,1059.46,215.15z"/>
		<path class="st9" d="M1045.88,215.11l-7.08-0.02c-1.08,0-1.97-0.91-1.96-2l0.02-7.37c0.01-1.1,0.9-1.99,1.97-1.99l7.07,0.02
			c1.08,0,1.97,0.9,1.97,2l-0.02,7.37C1047.85,214.21,1046.95,215.11,1045.88,215.11z"/>
		<path class="st9" d="M1032.29,215.07l-7.07-0.02c-1.08,0-1.96-0.9-1.97-2l0.03-7.37c0-1.1,0.89-1.99,1.97-1.99l7.08,0.02
			c1.08,0.01,1.96,0.9,1.96,2l-0.02,7.38C1034.25,214.18,1033.38,215.07,1032.29,215.07z"/>
		<path class="st9" d="M1018.71,215.03l-7.07-0.02c-1.08,0-1.96-0.9-1.96-2l0.02-7.38c0-1.09,0.89-1.99,1.97-1.98l7.07,0.02
			c1.08,0,1.97,0.91,1.96,2l-0.02,7.38C1020.68,214.14,1019.79,215.03,1018.71,215.03z"/>
		<path class="st9" d="M1164.4,202.11l-7.08-0.02c-1.08,0-1.96-0.9-1.96-2l0.02-7.38c0.01-1.09,0.89-1.99,1.97-1.99l7.08,0.02
			c1.08,0,1.96,0.9,1.96,2l-0.02,7.37C1166.37,201.22,1165.48,202.11,1164.4,202.11z"/>
		<path class="st9" d="M1150.81,202.07l-7.07-0.02c-1.08,0-1.96-0.9-1.96-2l0.02-7.38c0-1.09,0.9-1.99,1.97-1.99l7.07,0.02
			c1.08,0,1.97,0.9,1.96,1.99l-0.02,7.38C1152.78,201.18,1151.89,202.08,1150.81,202.07z"/>
		<path class="st9" d="M1137.22,202.04l-7.07-0.02c-1.08,0-1.96-0.91-1.96-2.01l0.02-7.37c0-1.11,0.89-2,1.96-1.99l7.08,0.02
			c1.08,0,1.96,0.9,1.96,2l-0.02,7.37C1139.2,201.14,1138.31,202.04,1137.22,202.04z"/>
		<path class="st9" d="M1123.63,202l-7.07-0.02c-1.08,0-1.97-0.91-1.96-2l0.02-7.37c0.01-1.1,0.89-2,1.97-1.99l7.07,0.02
			c1.08,0.01,1.97,0.91,1.97,2l-0.02,7.36C1125.61,201.1,1124.72,202,1123.63,202z"/>
		<path class="st9" d="M1110.05,201.96l-7.07-0.02c-1.08-0.01-1.97-0.91-1.96-2l0.02-7.37c0-1.09,0.89-1.99,1.97-1.99l7.07,0.02
			c1.08,0,1.96,0.91,1.96,2l-0.02,7.38C1112.02,201.06,1111.14,201.96,1110.05,201.96z"/>
		<path class="st9" d="M1096.47,201.93l-7.08-0.02c-1.08-0.01-1.96-0.91-1.96-2l0.02-7.37c0-1.1,0.89-1.99,1.97-1.99l7.08,0.02
			c1.08,0,1.96,0.9,1.96,2l-0.02,7.37C1098.44,201.02,1097.55,201.92,1096.47,201.93z"/>
		<path class="st9" d="M1082.89,201.89l-7.08-0.02c-1.08,0-1.97-0.91-1.96-2l0.02-7.38c0.01-1.09,0.89-1.99,1.98-1.99l7.07,0.02
			c1.08,0.01,1.96,0.9,1.96,2l-0.02,7.37C1084.85,200.99,1083.97,201.88,1082.89,201.89z"/>
		<path class="st9" d="M1069.3,201.85l-7.07-0.02c-1.08-0.01-1.97-0.91-1.97-2l0.02-7.38c0-1.09,0.89-1.99,1.97-1.99l7.07,0.02
			c1.08,0,1.97,0.9,1.96,2l-0.02,7.37C1071.27,200.95,1070.39,201.85,1069.3,201.85z"/>
		<path class="st9" d="M1055.72,201.81l-7.08-0.02c-1.08,0-1.97-0.9-1.96-2l0.02-7.38c0-1.09,0.89-1.99,1.97-1.99l7.07,0.01
			c1.08,0,1.96,0.9,1.96,2l-0.02,7.38C1057.69,200.91,1056.8,201.81,1055.72,201.81z"/>
		<path class="st9" d="M1042.13,201.77l-7.08-0.02c-1.08-0.01-1.96-0.9-1.96-2l0.02-7.37c0-1.1,0.89-2,1.97-2l7.07,0.03
			c1.08,0,1.97,0.9,1.96,2l-0.02,7.37C1044.1,200.87,1043.21,201.78,1042.13,201.77z"/>
		<path class="st9" d="M1028.55,201.73l-7.07-0.02c-1.08,0-1.97-0.91-1.96-2l0.02-7.37c0-1.1,0.89-2,1.97-1.99l7.08,0.01
			c1.08,0,1.97,0.9,1.96,2l-0.02,7.38C1030.52,200.84,1029.63,201.74,1028.55,201.73z"/>
		<path class="st9" d="M1157.32,188.76l-7.08-0.01c-1.07-0.01-1.96-0.91-1.95-2.01l0.01-7.37c0.01-1.1,0.9-1.99,1.98-1.99l7.07,0.02
			c1.09,0,1.97,0.9,1.96,2.01l-0.02,7.37C1159.29,187.87,1158.4,188.77,1157.32,188.76z"/>
		<path class="st9" d="M1143.74,188.73l-7.07-0.02c-1.08,0-1.97-0.9-1.96-1.99l0.02-7.38c0-1.09,0.89-1.99,1.97-1.99l7.07,0.02
			c1.08,0.01,1.97,0.91,1.96,2l-0.02,7.37C1145.71,187.83,1144.81,188.73,1143.74,188.73z"/>
		<path class="st9" d="M1130.15,188.69l-7.08-0.02c-1.08,0-1.97-0.91-1.96-2l0.02-7.38c0.01-1.1,0.89-1.99,1.97-1.99l7.07,0.02
			c1.08,0.01,1.96,0.91,1.96,2l-0.02,7.37C1132.12,187.79,1131.23,188.69,1130.15,188.69z"/>
		<path class="st9" d="M1116.57,188.65l-7.07-0.03c-1.08,0-1.96-0.9-1.97-2l0.02-7.38c0-1.09,0.89-1.99,1.97-1.99l7.07,0.02
			c1.08,0,1.97,0.91,1.97,2l-0.02,7.38C1118.54,187.76,1117.65,188.65,1116.57,188.65z"/>
		<path class="st9" d="M1102.98,188.61l-7.08-0.02c-1.08-0.01-1.96-0.9-1.96-2.01l0.02-7.37c-0.01-1.1,0.89-1.99,1.97-1.99
			l7.08,0.02c1.08,0,1.97,0.9,1.96,2l-0.02,7.37C1104.95,187.73,1104.06,188.62,1102.98,188.61z"/>
		<path class="st9" d="M1089.4,188.57l-7.08-0.02c-1.08,0-1.97-0.9-1.96-2l0.02-7.37c0-1.1,0.89-1.99,1.97-1.99l7.07,0.02
			c1.08,0.01,1.97,0.9,1.96,2l-0.01,7.38C1091.37,187.68,1090.48,188.57,1089.4,188.57z"/>
		<path class="st9" d="M1075.81,188.53l-7.07-0.01c-1.08-0.01-1.96-0.91-1.96-2.01l0.02-7.37c0-1.1,0.89-1.99,1.97-1.99l7.07,0.02
			c1.08,0,1.97,0.9,1.96,2l-0.01,7.37C1077.78,187.64,1076.89,188.53,1075.81,188.53z"/>
		<path class="st9" d="M1062.23,188.5l-7.08-0.02c-1.08-0.01-1.97-0.9-1.96-2l0.02-7.38c0.01-1.1,0.89-1.99,1.98-1.99l7.08,0.03
			c1.08,0,1.97,0.9,1.96,2l-0.02,7.38C1064.2,187.6,1063.31,188.5,1062.23,188.5z"/>
		<path class="st9" d="M1048.64,188.46l-7.07-0.02c-1.08,0-1.96-0.9-1.96-2l0.02-7.37c0-1.1,0.89-2,1.96-1.99l7.08,0.02
			c1.08,0.01,1.96,0.9,1.96,2l-0.02,7.37C1050.61,187.57,1049.72,188.46,1048.64,188.46z"/>
		<path class="st9" d="M1035.06,188.42l-7.08-0.02c-1.09,0-1.96-0.9-1.96-2l0.02-7.38c0-1.09,0.89-1.99,1.97-1.99l7.07,0.03
			c1.09,0,1.97,0.91,1.97,2l-0.02,7.37C1037.03,187.53,1036.14,188.42,1035.06,188.42z"/>
		<path class="st9" d="M1021.44,188.38l-12.79-0.03c-1.1-0.01-2.01-0.92-2-2.04l0.02-7.3c0-1.12,0.91-2.03,2.01-2.03l12.79,0.04
			c1.11,0,2,0.91,2,2.03l-0.02,7.3C1023.44,187.47,1022.54,188.39,1021.44,188.38z"/>
		<path class="st9" d="M1171.16,175.47l-7.08-0.02c-1.09,0-1.96-0.9-1.97-2l0.02-7.37c0-1.1,0.89-1.99,1.97-1.99l7.07,0.02
			c1.08,0,1.97,0.9,1.96,2l-0.02,7.37C1173.13,174.58,1172.24,175.47,1171.16,175.47z"/>
		<path class="st9" d="M1157.57,175.44l-7.07-0.02c-1.09,0-1.97-0.9-1.96-2l0.02-7.38c0-1.09,0.89-1.99,1.97-1.99l7.07,0.02
			c1.08,0,1.96,0.9,1.96,2l-0.02,7.37C1159.55,174.54,1158.66,175.44,1157.57,175.44z"/>
		<path class="st9" d="M1143.99,175.4l-7.08-0.02c-1.08,0-1.96-0.91-1.96-2.01l0.02-7.37c0-1.09,0.89-1.99,1.97-1.99l7.07,0.02
			c1.08,0.01,1.97,0.91,1.96,2l-0.01,7.37C1145.95,174.5,1145.07,175.4,1143.99,175.4z"/>
		<path class="st9" d="M1130.41,175.36l-7.08-0.02c-1.08,0-1.97-0.9-1.96-2l0.02-7.37c0-1.1,0.9-1.99,1.97-1.99l7.07,0.02
			c1.08,0,1.97,0.9,1.96,2l-0.02,7.38C1132.38,174.47,1131.49,175.36,1130.41,175.36z"/>
		<path class="st9" d="M1116.82,175.32l-7.07-0.02c-1.08-0.01-1.97-0.9-1.96-2l0.02-7.38c0-1.09,0.89-1.99,1.97-1.99l7.08,0.02
			c1.08,0,1.96,0.9,1.96,2l-0.02,7.37C1118.79,174.43,1117.91,175.33,1116.82,175.32z"/>
		<path class="st9" d="M1103.24,175.28l-7.07-0.01c-1.08-0.01-1.97-0.91-1.97-2.01l0.02-7.38c0-1.09,0.89-1.99,1.98-1.99l7.07,0.02
			c1.08,0.01,1.97,0.91,1.96,2l-0.02,7.37C1105.21,174.39,1104.32,175.28,1103.24,175.28z"/>
		<path class="st9" d="M1089.65,175.25l-7.08-0.02c-1.08,0-1.97-0.91-1.95-2l0.02-7.38c0-1.1,0.89-1.99,1.98-1.99l7.07,0.02
			c1.08,0,1.96,0.9,1.96,2l-0.02,7.37C1091.62,174.35,1090.73,175.25,1089.65,175.25z"/>
		<path class="st9" d="M1076.07,175.21l-7.08-0.02c-1.08-0.01-1.96-0.91-1.96-2.01l0.02-7.37c0-1.1,0.88-1.99,1.97-1.99l7.08,0.03
			c1.08,0,1.97,0.9,1.96,2l-0.02,7.37C1078.04,174.31,1077.15,175.21,1076.07,175.21z"/>
		<path class="st9" d="M1062.49,175.17l-7.08-0.02c-1.08-0.01-1.96-0.91-1.97-2l0.02-7.37c0.01-1.09,0.89-1.99,1.98-1.99l7.08,0.02
			c1.08,0,1.97,0.9,1.96,1.99l-0.02,7.38C1064.45,174.28,1063.56,175.17,1062.49,175.17z"/>
		<path class="st9" d="M1048.9,175.13l-7.08-0.01c-1.08-0.01-1.96-0.91-1.96-2l0.02-7.37c0-1.11,0.89-1.99,1.97-2l7.08,0.02
			c1.08,0,1.96,0.9,1.96,1.99l-0.02,7.38C1050.87,174.23,1049.98,175.13,1048.9,175.13z"/>
		<path class="st9" d="M1035.28,175.09l-12.8-0.03c-1.1-0.01-2-0.92-1.99-2.04l0.02-7.31c0.01-1.11,0.9-2.02,2.01-2.02l12.79,0.04
			c1.1,0,2,0.92,1.99,2.04l-0.02,7.3C1037.29,174.19,1036.38,175.1,1035.28,175.09z"/>
		<path class="st9" d="M1015.28,175.04l-6.73-0.02c-1.03,0-1.87-0.86-1.87-1.9l0.02-7.57c0-1.05,0.85-1.9,1.88-1.89l6.73,0.01
			c1.03,0.01,1.88,0.87,1.87,1.91l-0.02,7.57C1017.16,174.19,1016.31,175.04,1015.28,175.04z"/>
		<path class="st9" d="M1115.73,147.68c0,3.58-2.86,6.49-6.4,6.49h-53.37c-3.53,0-6.4-2.91-6.4-6.49v-32.36
			c0-3.58,2.86-6.49,6.4-6.49h53.37c3.53,0,6.4,2.91,6.4,6.49V147.68z"/>
		<path class="st10" d="M1050.52,139.77v8.11c0,3.58,2.86,6.49,6.39,6.49h53.87c3.53,0,6.4-2.91,6.4-6.49v-8.11H1050.52z"/>
		<path class="st8" d="M1084.1,154.38h26.68c3.53,0,6.4-2.91,6.4-6.49v-8.11h-33.08V154.38z"/>
		<rect x="951.23" y="253.92" class="st10" width="261.05" height="18.14"/>
	</g>
	<g>
		<g>
			<path class="st11" d="M1107.1,117.23l0.32,0.14c3.23,1.42,6.99-0.09,8.39-3.37l6.78-15.85c0.08-0.05,0.16-0.1,0.24-0.15
				c0,0.03-0.01,0.06-0.02,0.1l-4.74,37.61c-0.45,3.55,2.02,6.79,5.52,7.24l0.34,0.05c3.5,0.45,6.7-2.05,7.15-5.6l1.97-20.11
				c0.25,0.05,0.93,0.03,0.93,0.03l1.27,27.43c0.14,3.57,3.12,6.35,6.63,6.21l0.35-0.02c3.52-0.15,6.26-3.16,6.11-6.73l-1.93-27.68
				l1.43-0.07l4.29,27.13c0.57,3.54,3.85,5.92,7.32,5.35l0.35-0.06c3.47-0.57,5.84-3.9,5.27-7.42l-4.97-27.33
				c0,0,1.3-0.18,1.63-0.45l2.73,12.04c0.61,2.68,3.25,4.36,5.89,3.74l0.19-0.04c2.65-0.62,4.3-3.29,3.69-5.98
				c0,0-5.71-25.57-6.7-34.12c-0.98-8.55-9.98-18.11-19.9-16.94l-18.72,2.22c-17.39,2.07-25.19,33.75-25.19,33.75
				C1102.34,111.61,1103.87,115.81,1107.1,117.23z"/>
			<polygon class="st12" points="1122.73,0 1122.88,77.23 1164.27,77.23 1164.35,0 			"/>
		</g>
		<g>
			<path class="st11" d="M1076.08,111.79l-0.32,0.14c-3.23,1.42-6.99-0.09-8.39-3.37l-6.78-15.85c-0.08-0.05-0.16-0.1-0.24-0.15
				c0,0.03,0.01,0.06,0.02,0.1l4.74,37.61c0.45,3.55-2.02,6.79-5.52,7.24l-0.34,0.05c-3.5,0.45-6.7-2.05-7.15-5.6l-1.97-20.11
				c-0.25,0.05-0.93,0.03-0.93,0.03l-1.27,27.43c-0.14,3.57-3.12,6.35-6.63,6.21l-0.35-0.02c-3.52-0.15-6.26-3.16-6.11-6.73
				l1.93-27.68l-1.43-0.07l-4.29,27.13c-0.57,3.54-3.85,5.92-7.32,5.35l-0.35-0.06c-3.47-0.57-5.84-3.9-5.27-7.42l4.97-27.33
				c0,0-1.3-0.18-1.63-0.45l-2.73,12.04c-0.61,2.68-3.25,4.36-5.89,3.74l-0.19-0.04c-2.65-0.62-4.3-3.29-3.69-5.98
				c0,0,5.71-25.57,6.7-34.12c0.98-8.55,9.98-18.11,19.9-16.94l18.72,2.22c17.39,2.07,25.19,33.75,25.19,33.75
				C1080.84,106.17,1079.31,110.36,1076.08,111.79z"/>
			<polygon class="st12" points="1022.44,0 1022.49,71.79 1063.88,71.79 1063.99,0 			"/>
		</g>
	</g>
</g>
<g>
	<g>
		<polygon class="st13" points="856.72,180.91 856.72,218.93 868.71,224 868.71,180.91 		"/>
		<path class="st14" d="M862.72,125.15c-6.25,0-11.29,4.03-13.86,9.4c-1.29,2.7-2.73,10.04-4.05,18.48c0,0,7.92,10.14,7.92,10.14
			s-9.06-2.45-9.06-2.45c-1.95,13.85-3.44,27.79-3.44,27.79l22.49,20.28C862.72,208.79,862.72,141.11,862.72,125.15z"/>
		<path class="st12" d="M862.72,125.15c6.25,0,11.29,4.03,13.86,9.4c1.29,2.7,2.73,10.04,4.05,18.48c0,0-7.92,10.14-7.92,10.14
			s9.06-2.45,9.06-2.45c1.95,13.85,3.43,27.79,3.43,27.79l-22.49,20.28C862.72,208.79,862.72,141.11,862.72,125.15z"/>
	</g>
	<g>
		<polygon class="st13" points="373.97,180.91 373.97,218.93 385.96,224 385.96,180.91 		"/>
		<path class="st14" d="M379.97,125.15c-6.25,0-11.29,4.03-13.86,9.4c-1.29,2.7-2.73,10.04-4.05,18.48c0,0,7.92,10.14,7.92,10.14
			s-9.06-2.45-9.06-2.45c-1.95,13.85-3.44,27.79-3.44,27.79l22.49,20.28C379.97,208.79,379.97,141.11,379.97,125.15z"/>
		<path class="st12" d="M379.97,125.15c6.25,0,11.29,4.03,13.86,9.4c1.29,2.7,2.73,10.04,4.05,18.48c0,0-7.92,10.14-7.92,10.14
			s9.06-2.45,9.06-2.45c1.95,13.85,3.43,27.79,3.43,27.79l-22.49,20.28C379.97,208.79,379.97,141.11,379.97,125.15z"/>
	</g>
</g>
<g>
	<path class="st13" d="M157.35,18.86c-15.28,0-29.65,6.04-40.45,17l6.17,6.26c9.16-9.29,21.33-14.41,34.28-14.41
		s25.13,5.12,34.28,14.41l6.17-6.26C186.99,24.89,172.63,18.86,157.35,18.86z"/>
	<path class="st13" d="M127.85,46.97l6.17,6.26c6.23-6.32,14.51-9.8,23.32-9.8c8.81,0,17.09,3.48,23.32,9.8l6.17-6.26
		c-7.88-7.99-18.35-12.39-29.49-12.39C146.21,34.58,135.73,38.98,127.85,46.97z"/>
	<path class="st13" d="M138.83,58.1l6.17,6.26c3.3-3.35,7.69-5.19,12.35-5.19s9.05,1.84,12.35,5.19l6.17-6.26
		c-4.95-5.02-11.52-7.78-18.52-7.78S143.77,53.08,138.83,58.1z"/>
	<path class="st13" d="M157.35,67.9c-2.27,0-4.53,0.88-6.26,2.63c-0.06,0.06-0.12,0.12-0.18,0.19l6.44,6.55l6.46-6.53
		c-0.06-0.07-0.13-0.14-0.19-0.21C161.88,68.78,159.61,67.9,157.35,67.9z"/>
</g>
<g>
	<path class="st13" d="M1081.76,347.52c15.28,0,29.65-6.04,40.45-17l-6.17-6.26c-9.16,9.29-21.33,14.41-34.28,14.41
		s-25.13-5.12-34.28-14.41l-6.17,6.26C1052.11,341.48,1066.48,347.52,1081.76,347.52z"/>
	<path class="st13" d="M1111.25,319.4l-6.17-6.26c-6.23,6.32-14.51,9.8-23.32,9.8s-17.09-3.48-23.32-9.8l-6.17,6.26
		c7.88,7.99,18.35,12.39,29.49,12.39S1103.37,327.4,1111.25,319.4z"/>
	<path class="st13" d="M1100.28,308.27l-6.17-6.26c-3.3,3.35-7.69,5.19-12.35,5.19s-9.05-1.84-12.35-5.19l-6.17,6.26
		c4.95,5.02,11.52,7.78,18.52,7.78S1095.33,313.29,1100.28,308.27z"/>
	<path class="st13" d="M1081.76,298.47c2.27,0,4.53-0.88,6.27-2.63c0.06-0.06,0.12-0.12,0.17-0.19l-6.44-6.55l-6.46,6.53
		c0.06,0.07,0.13,0.14,0.19,0.21C1077.23,297.59,1079.49,298.47,1081.76,298.47z"/>
</g>
<g>
	<polygon class="st10" points="489.92,74.36 461.31,56.23 434.49,74.36 434.49,0 489.92,0 	"/>
	<polygon class="st10" points="749.19,295.64 777.79,313.77 804.61,295.64 804.61,370 749.19,370 	"/>
</g>
</svg>
